<svg xmlns="http://www.w3.org/2000/svg" version="1.1" xmlns:xlink="http://www.w3.org/1999/xlink" xmlns:svgjs="http://svgjs.dev/svgjs" width="128" height="128" viewBox="0 0 128 128"><g transform="matrix(0.8046875,0,0,0.8046875,12.760752631578946,12.760752631578946)"><svg viewBox="0 0 95 95" data-background-color="#ffffff" preserveAspectRatio="xMidYMid meet" height="128" width="128" xmlns="http://www.w3.org/2000/svg" xmlns:xlink="http://www.w3.org/1999/xlink"><g id="tight-bounds" transform="matrix(1,0,0,1,-0.24049999999999727,-0.24049999999999727)"><svg viewBox="0 0 95.481 95.481" height="95.481" width="95.481"><g><svg viewBox="0 0 95.481 95.481" height="95.481" width="95.481"><g><svg viewBox="0 0 95.481 95.481" height="95.481" width="95.481"><g id="textblocktransform"><svg viewBox="0 0 95.481 95.481" height="95.481" width="95.481" id="textblock"><g><svg viewBox="0 0 95.481 95.481" height="95.481" width="95.481"><g><svg viewBox="0 0 95.481 95.481" height="95.481" width="95.481"><g><svg xmlns="http://www.w3.org/2000/svg" xmlns:xlink="http://www.w3.org/1999/xlink" version="1.1" x="0" y="0" viewBox="0.5 0.5 47 47" enable-background="new 0 0 48 48" xml:space="preserve" height="95.481" width="95.481" class="icon-icon-0" data-fill-palette-color="accent" id="icon-0"><g fill="#2196f3" data-fill-palette-color="accent"><g fill="#2196f3" data-fill-palette-color="accent"><g fill="#2196f3" data-fill-palette-color="accent"><path fill="#2196f3" d="M31.9 18H2.5c-1.1 0-2-0.9-2-2s0.9-2 2-2h29.4c1.1 0 2 0.9 2 2S33 18 31.9 18z" data-fill-palette-color="accent"></path></g><g fill="#2196f3" data-fill-palette-color="accent"><path fill="#2196f3" d="M31.9 18c-1.1 0-2-0.9-2-2s0.9-2 2-2c3 0 5.4-2.2 5.4-4.8 0-2.7-2.4-4.8-5.4-4.8-3 0-5.4 2.2-5.4 4.8 0 1.1-0.9 2-2 2s-2-0.9-2-2c0-4.8 4.2-8.7 9.3-8.7s9.3 3.9 9.3 8.7S37 18 31.9 18z" data-fill-palette-color="accent"></path></g></g><g fill="#2196f3" data-fill-palette-color="accent"><g fill="#2196f3" data-fill-palette-color="accent"><path fill="#2196f3" d="M31.9 33.9H2.5c-1.1 0-2-0.9-2-2s0.9-2 2-2h29.4c1.1 0 2 0.9 2 2S33 33.9 31.9 33.9z" data-fill-palette-color="accent"></path></g><g fill="#2196f3" data-fill-palette-color="accent"><path fill="#2196f3" d="M31.9 47.5c-1.1 0-2-0.9-2-2s0.9-2 2-2c3 0 5.4-2.2 5.4-4.8 0-2.7-2.4-4.8-5.4-4.8-1.1 0-2-0.9-2-2s0.9-2 2-2c5.1 0 9.3 3.9 9.3 8.7S37 47.5 31.9 47.5z" data-fill-palette-color="accent"></path></g></g><g fill="#2196f3" data-fill-palette-color="accent"><path fill="#2196f3" d="M38.5 26.3H2.5c-1.1 0-2-0.9-2-2 0-1.1 0.9-2 2-2h36.1c1.1 0 2 0.9 2 2C40.5 25.4 39.6 26.3 38.5 26.3z" data-fill-palette-color="accent"></path></g><g fill="#2196f3" data-fill-palette-color="accent"><path fill="#2196f3" d="M38.5 26.3c-1.1 0-2-0.9-2-2 0-1.1 0.9-2 2-2 2.8 0 5-1.8 5-4 0-1.1 0.9-2 2-2s2 0.9 2 2C47.5 22.8 43.5 26.3 38.5 26.3z" data-fill-palette-color="accent"></path></g></g></svg></g></svg></g></svg></g></svg></g></svg></g></svg></g><defs></defs></svg><rect width="95.481" height="95.481" fill="none" stroke="none" visibility="hidden"></rect></g></svg></g></svg>